<svg width="1186" height="16" viewBox="0 0 1186 16" fill="none" xmlns="http://www.w3.org/2000/svg">
<path d="M0 8C3.86258e-07 12.4183 3.58172 16 8 16C12.4183 16 16 12.4183 16 8C16 3.58172 12.4183 -3.86258e-07 8 0C3.58172 3.86258e-07 -3.86258e-07 3.58172 0 8ZM1170 7.9999C1170 12.4182 1173.58 15.9999 1178 15.9999C1182.42 15.9999 1186 12.4182 1186 7.9999C1186 3.58162 1182.42 -0.000102671 1178 -0.000102285C1173.58 -0.000101898 1170 3.58162 1170 7.9999ZM8 9.5L1178 9.4999L1178 6.4999L8 6.5L8 9.5Z" fill="#49FFB3"/>
</svg>
